<?xml version="1.0" encoding="utf-8"?>
<!-- Generator: Adobe Illustrator 23.0.4, SVG Export Plug-In . SVG Version: 6.00 Build 0)  -->
<svg version="1.1" id="Layer_1" xmlns="http://www.w3.org/2000/svg" xmlns:xlink="http://www.w3.org/1999/xlink" x="0px" y="0px"
	 viewBox="0 0 260 45" style="enable-background:new 0 0 260 45;" xml:space="preserve">
<style type="text/css">
	.st0{fill:#4AAE64;}
	.st1{opacity:0.33;fill:url(#SVGID_1_);}
	.st2{opacity:0.54;fill:url(#SVGID_2_);}
	.st3{fill:#39363A;}
	.st4{fill:#3EBB64;}
	.st5{fill:#BABABA;}
</style>
<g>
	<g>
		<path class="st0" d="M40.5,9.2l-4.2,20.9c-0.1,0.3-0.3,0.6-0.6,0.7c-0.1,0-0.1,0-0.2,0c-0.2,0-0.3,0-0.4-0.1L29.5,27l1-0.7
			c3.8-2.5,5.3-7.2,3.6-11.3c-0.5-1.2-1.2-2.2-2.1-3.1c-1.8-1.8-4.1-2.8-6.6-2.8c-2.5,0-4.9,1-6.6,2.8c-0.9,0.9-1.6,1.9-2.1,3.1
			c-1.6,4.1-0.1,8.8,3.6,11.3l1,0.7l-5.6,3.6c-0.1,0.1-0.3,0.1-0.4,0.1c-0.1,0-0.1,0-0.2,0c-0.3-0.1-0.6-0.3-0.6-0.7L10.3,9.2H5.7
			l4.4,21.7c0.5,2.5,2.6,4.3,5.2,4.3c1,0,2-0.3,2.9-0.9l7.2-4.7l7.2,4.7c0.9,0.6,1.8,0.9,2.9,0.9c2.5,0,4.7-1.8,5.2-4.3l4.4-21.7
			H40.5z M20.8,16.8c0.2-0.6,0.6-1.2,1.1-1.6c0.9-0.9,2.2-1.4,3.5-1.4c1.3,0,2.6,0.5,3.5,1.4c0.5,0.5,0.8,1,1.1,1.6
			c0.9,2.1,0,4.6-1.9,5.9l-2.6,1.7l-2.6-1.7C20.8,21.4,20,18.9,20.8,16.8z"/>
	</g>
	<linearGradient id="SVGID_1_" gradientUnits="userSpaceOnUse" x1="25.2973" y1="25.0857" x2="30.591" y2="30.7789">
		<stop  offset="0" style="stop-color:#1C1C20"/>
		<stop  offset="1" style="stop-color:#1C1C20;stop-opacity:0"/>
	</linearGradient>
	<polygon class="st1" points="25.4,29.7 29.5,27 34.1,30 31.5,33.7 	"/>
	<linearGradient id="SVGID_2_" gradientUnits="userSpaceOnUse" x1="25.5539" y1="33.8098" x2="20.3948" y2="21.6053">
		<stop  offset="0" style="stop-color:#1C1C20"/>
		<stop  offset="1" style="stop-color:#1C1C20;stop-opacity:0"/>
	</linearGradient>
	<path class="st2" d="M22.8,22.6c-2-1.3-2.8-3.8-1.9-5.9c0.1-0.1,0.1-0.3,0.2-0.4c-1.5-0.3-3.6-0.8-3.9-0.8c-0.2,0-0.4,0.1-0.6,0.2
		c-1.2,3.9,0.3,8.3,3.9,10.6l1,0.7l4.1-2.7L22.8,22.6z"/>
</g>
<g>
	<path class="st3" d="M50.5,16.5c0-0.4,0.1-0.8,0.2-1c0.2-0.2,0.5-0.4,0.9-0.5c0.4-0.1,1-0.2,1.7-0.2c0.7,0,1.6,0,2.6,0
		c1.5,0,2.9,0.2,4.2,0.6c1.2,0.4,2.3,1,3.1,1.7c0.9,0.7,1.5,1.6,2,2.7s0.7,2.3,0.7,3.6c0,1.3-0.2,2.5-0.7,3.6
		c-0.4,1.1-1.1,2-1.9,2.7c-0.9,0.7-1.9,1.3-3.2,1.7c-1.3,0.4-2.7,0.6-4.4,0.6c-1.7,0-3,0-3.9-0.1c-0.8-0.1-1.3-0.1-1.4-0.1V16.5z
		 M53.4,29.1c0.1,0,0.4,0.1,0.8,0.1c0.4,0,1,0.1,1.8,0.1c2.2,0,3.9-0.5,5.1-1.6c1.2-1,1.8-2.5,1.8-4.4c0-0.9-0.1-1.7-0.4-2.4
		c-0.3-0.7-0.7-1.4-1.2-1.9c-0.6-0.5-1.3-0.9-2.1-1.2c-0.9-0.3-1.9-0.5-3.1-0.5c-0.8,0-1.4,0-1.8,0.1s-0.7,0.1-0.7,0.1V29.1z"/>
	<path class="st3" d="M68.7,16.6c0-1.1,0.6-1.7,1.8-1.7h9.4c1,0,1.5,0.4,1.5,1.3c0,0.3,0,0.6-0.1,0.8c-0.1,0.3-0.2,0.4-0.2,0.5h-9.3
		v4.2h7.8c1,0,1.4,0.4,1.4,1.3c0,0.3,0,0.6-0.1,0.8c-0.1,0.3-0.2,0.4-0.2,0.5h-8.9V29h9.5v2.7H68.7V16.6z"/>
	<path class="st3" d="M84.3,16.6c0-1.1,0.6-1.7,1.8-1.7h9.4c1,0,1.5,0.4,1.5,1.3c0,0.3,0,0.6-0.1,0.8c-0.1,0.3-0.2,0.4-0.2,0.5h-9.3
		v4.2h7.8c1,0,1.4,0.4,1.4,1.3c0,0.3,0,0.6-0.1,0.8c-0.1,0.3-0.2,0.4-0.2,0.5h-8.9V29h9.5v2.7H84.3V16.6z"/>
	<path class="st3" d="M104.5,17.6h-4.9c-1,0-1.4-0.4-1.4-1.3c0-0.3,0-0.6,0.1-0.8s0.2-0.4,0.2-0.5h13.9c1,0,1.4,0.4,1.4,1.3
		c0,0.3,0,0.6-0.1,0.8c-0.1,0.3-0.2,0.4-0.2,0.5h-6.1v14.1h-2.9V17.6z"/>
</g>
<g>
	<path class="st4" d="M129.6,10.2h2.4c1.3,0,2.4,0.2,3.3,0.8c1.1,0.7,1.8,2,1.8,3.5c0,1.4-0.6,2.6-1.6,3.4c-0.9,0.7-2.1,1-3.7,1
		h-2.2V10.2z M131.9,17.5c1.1,0,1.9-0.2,2.5-0.6c0.7-0.5,1.1-1.3,1.1-2.3c0-1.1-0.5-1.9-1.2-2.4c-0.7-0.5-1.5-0.5-2.5-0.5h-0.8v5.9
		H131.9z"/>
	<path class="st4" d="M139,10.2c0.5,0,0.9,0.4,0.9,0.9c0,0.5-0.4,0.9-0.9,0.9c-0.5,0-0.9-0.4-0.9-0.9
		C138.1,10.6,138.5,10.2,139,10.2z M138.3,13h1.4v5.8h-1.4V13z"/>
	<path class="st4" d="M141.8,19.7c0.6,0.4,1.2,0.6,1.9,0.6c1,0,1.6-0.6,1.6-1.5v-0.4l0,0c-0.4,0.3-0.9,0.4-1.5,0.4
		c-1.5,0-2.8-1.1-2.8-2.9c0-1.7,1.2-3.1,3-3.1c0.6,0,1.1,0.1,1.5,0.3l1.2-0.2v5.8c0,1.8-1.2,2.8-3,2.8c-0.7,0-1.4-0.2-1.9-0.4V19.7z
		 M145.4,14.4c-0.3-0.2-0.8-0.3-1.2-0.3c-1,0-1.6,0.8-1.6,1.7c0,1,0.7,1.8,1.6,1.8c0.4,0,0.9-0.1,1.2-0.4V14.4z"/>
	<path class="st4" d="M149.2,10.2c0.5,0,0.9,0.4,0.9,0.9c0,0.5-0.4,0.9-0.9,0.9c-0.5,0-0.9-0.4-0.9-0.9
		C148.3,10.6,148.7,10.2,149.2,10.2z M148.5,13h1.4v5.8h-1.4V13z"/>
	<path class="st4" d="M155.1,18.7c-0.3,0.2-0.7,0.3-1.2,0.3c-0.5,0-1.1-0.2-1.4-0.6c-0.3-0.3-0.5-0.8-0.5-1.7v-2.5h-1V13h1v-1.6
		l1.4-0.2V13h1.6v1.2h-1.6v2.3c0,0.7,0.1,1.2,0.8,1.2c0.3,0,0.6-0.1,0.9-0.2V18.7z"/>
	<path class="st4" d="M159.7,18.4c-0.4,0.3-1,0.6-1.7,0.6c-0.5,0-1-0.1-1.4-0.4c-0.4-0.3-0.7-0.8-0.7-1.3c0-0.6,0.3-1.1,0.7-1.4
		c0.4-0.3,1-0.4,1.6-0.4c0.4,0,0.8,0,1.1,0.1v-0.3c0-0.4-0.1-0.6-0.3-0.8c-0.2-0.2-0.5-0.3-1-0.3c-0.7,0-1.3,0.2-1.8,0.5v-1.3
		c0.5-0.3,1.1-0.5,2-0.5c0.8,0,1.4,0.2,1.9,0.5c0.4,0.3,0.6,0.8,0.6,1.6v2.2c0,0.3,0.1,0.5,0.4,0.5c0.1,0,0.2,0,0.3-0.1v1.1
		c-0.2,0.1-0.4,0.1-0.7,0.1C160.4,18.9,160,18.7,159.7,18.4L159.7,18.4z M159.4,16.5c-0.3-0.1-0.6-0.1-0.9-0.1
		c-0.6,0-1.2,0.2-1.2,0.8c0,0.5,0.4,0.7,0.9,0.7c0.4,0,0.9-0.2,1.1-0.4V16.5z"/>
	<path class="st4" d="M162.7,9.8h1.4v9h-1.4V9.8z"/>
	<path class="st4" d="M168.7,10.2h5.1v1.3h-3.6v2.1h3.1V15h-3.1v2.5h3.7v1.3h-5.2V10.2z"/>
	<path class="st4" d="M183,15.4c0-0.5-0.1-0.8-0.3-1c-0.2-0.2-0.4-0.3-0.7-0.3c-0.5,0-1.1,0.3-1.5,0.7c0,0.1,0,0.2,0,0.4v3.6h-1.4
		v-3.4c0-0.5-0.1-0.8-0.2-1c-0.2-0.2-0.5-0.3-0.8-0.3c-0.5,0-1.1,0.3-1.5,0.7v4h-1.4V13h1.4v0.6l0,0c0.5-0.4,1.1-0.8,1.9-0.8
		c0.7,0,1.4,0.3,1.7,0.9c0.7-0.6,1.4-0.9,2.1-0.9c0.6,0,1.2,0.2,1.5,0.6c0.4,0.4,0.5,0.9,0.5,1.7v3.6H183V15.4z"/>
	<path class="st4" d="M187.5,21.4h-1.4V13h1.4v0.3l0,0c0.4-0.3,0.9-0.5,1.6-0.5c1.5,0,2.8,1.2,2.8,3c0,1.9-1.4,3.1-3,3.1
		c-0.5,0-1-0.1-1.3-0.3l0,0V21.4z M188.7,17.7c1,0,1.7-0.8,1.7-1.8s-0.6-1.9-1.7-1.9c-0.4,0-0.9,0.2-1.2,0.4v2.9
		C187.8,17.6,188.2,17.7,188.7,17.7z"/>
	<path class="st4" d="M193.2,9.8h1.4v9h-1.4V9.8z"/>
	<path class="st4" d="M199.1,12.8c1.8,0,3.2,1.3,3.2,3s-1.4,3-3.2,3c-1.8,0-3.2-1.3-3.2-3S197.3,12.8,199.1,12.8z M199.1,17.7
		c1,0,1.7-0.8,1.7-1.8s-0.7-1.8-1.7-1.8c-1,0-1.7,0.8-1.7,1.8S198.1,17.7,199.1,17.7z"/>
	<path class="st4" d="M203.4,21.4l1.6-3.2l-2.4-5.2h1.6l0.8,1.8c0.3,0.7,0.5,1.2,0.8,1.8h0c0.3-0.7,0.6-1.3,0.9-2l0.8-1.7h1.5
		l-3.9,8.4H203.4z"/>
	<path class="st4" d="M217.5,15.4c0-0.5-0.1-0.8-0.3-1c-0.2-0.2-0.4-0.3-0.7-0.3c-0.5,0-1.1,0.3-1.5,0.7c0,0.1,0,0.2,0,0.4v3.6h-1.4
		v-3.4c0-0.5-0.1-0.8-0.2-1c-0.2-0.2-0.5-0.3-0.8-0.3c-0.5,0-1.1,0.3-1.5,0.7v4h-1.4V13h1.4v0.6l0,0c0.5-0.4,1.1-0.8,1.9-0.8
		c0.7,0,1.4,0.3,1.7,0.9c0.7-0.6,1.4-0.9,2.1-0.9c0.6,0,1.2,0.2,1.5,0.6c0.4,0.4,0.5,0.9,0.5,1.7v3.6h-1.4V15.4z"/>
	<path class="st4" d="M221.7,16.3c0.2,1,0.9,1.5,1.9,1.5c0.7,0,1.4-0.3,2-0.7v1.3c-0.5,0.3-1.4,0.5-2.1,0.5c-1.9,0-3.2-1.2-3.2-3
		c0-1.8,1.4-3.1,3-3.1c1.4,0,2.7,1,2.7,2.9c0,0.2,0,0.4,0,0.6H221.7z M224.6,15.3c-0.1-0.9-0.7-1.3-1.4-1.3c-0.7,0-1.3,0.4-1.5,1.3
		H224.6z"/>
	<path class="st4" d="M227.3,13h1.4v0.6l0,0c0.5-0.4,1.1-0.8,1.9-0.8c0.6,0,1.2,0.2,1.5,0.6c0.3,0.4,0.5,0.9,0.5,1.7v3.6h-1.4v-3.4
		c0-0.5-0.1-0.8-0.2-1c-0.2-0.2-0.4-0.3-0.8-0.3c-0.6,0-1.2,0.3-1.5,0.7v4h-1.4V13z"/>
	<path class="st4" d="M237.9,18.7c-0.3,0.2-0.7,0.3-1.2,0.3c-0.5,0-1.1-0.2-1.4-0.6c-0.3-0.3-0.5-0.8-0.5-1.7v-2.5h-1V13h1v-1.6
		l1.4-0.2V13h1.6v1.2h-1.6v2.3c0,0.7,0.1,1.2,0.8,1.2c0.3,0,0.6-0.1,0.9-0.2V18.7z"/>
	<path class="st4" d="M129.6,24.4h5.1v1.3h-3.6v2.1h3.1v1.3h-3.1v2.5h3.7V33h-5.2V24.4z"/>
	<path class="st4" d="M137.5,29.9l-2-2.7h1.6l0.5,0.7c0.2,0.4,0.5,0.8,0.8,1.1h0c0.2-0.4,0.6-0.8,0.8-1.1l0.5-0.7h1.6l-2,2.7
		l2.3,3.1h-1.6l-0.8-1.1c-0.3-0.4-0.5-0.7-0.8-1.1h0c-0.2,0.4-0.5,0.8-0.8,1.1l-0.8,1.1h-1.6L137.5,29.9z"/>
	<path class="st4" d="M146.7,32.7c-0.5,0.3-1.2,0.4-1.8,0.4c-1.9,0-3.2-1.3-3.2-3c0-1.8,1.5-3.1,3.3-3.1c0.6,0,1.2,0.2,1.7,0.4v1.4
		c-0.5-0.3-1.1-0.5-1.6-0.5c-1.1,0-1.9,0.8-1.9,1.8c0,1,0.8,1.8,1.9,1.8c0.6,0,1.2-0.2,1.7-0.6V32.7z"/>
	<path class="st4" d="M148.1,24h1.4v3.8l0,0c0.5-0.4,1.1-0.8,1.9-0.8c0.6,0,1.2,0.2,1.5,0.6c0.3,0.4,0.5,0.9,0.5,1.7V33h-1.4v-3.4
		c0-0.5-0.1-0.8-0.2-1c-0.2-0.2-0.5-0.3-0.8-0.3c-0.6,0-1.2,0.3-1.5,0.7v4h-1.4V24z"/>
	<path class="st4" d="M158.5,32.6c-0.4,0.3-1,0.6-1.7,0.6c-0.5,0-1-0.1-1.4-0.4c-0.4-0.3-0.7-0.8-0.7-1.3c0-0.6,0.3-1.1,0.7-1.4
		c0.4-0.3,1-0.4,1.6-0.4c0.4,0,0.8,0,1.1,0.1v-0.3c0-0.4-0.1-0.6-0.3-0.8c-0.2-0.2-0.5-0.3-1-0.3c-0.7,0-1.3,0.2-1.8,0.5v-1.3
		c0.5-0.3,1.1-0.5,2-0.5c0.8,0,1.4,0.2,1.9,0.5c0.4,0.3,0.6,0.8,0.6,1.6v2.2c0,0.3,0.1,0.5,0.4,0.5c0.1,0,0.2,0,0.3-0.1V33
		c-0.2,0.1-0.4,0.1-0.7,0.1C159.3,33.1,158.8,33,158.5,32.6L158.5,32.6z M158.3,30.7c-0.3-0.1-0.6-0.1-0.9-0.1
		c-0.6,0-1.2,0.2-1.2,0.8c0,0.5,0.4,0.7,0.9,0.7c0.4,0,0.9-0.2,1.1-0.4V30.7z"/>
	<path class="st4" d="M161.5,27.2h1.4v0.6l0,0c0.5-0.4,1.1-0.8,1.9-0.8c0.6,0,1.2,0.2,1.5,0.6c0.3,0.4,0.5,0.9,0.5,1.7V33h-1.4v-3.4
		c0-0.5-0.1-0.8-0.2-1c-0.2-0.2-0.4-0.3-0.8-0.3c-0.6,0-1.2,0.3-1.5,0.7v4h-1.4V27.2z"/>
	<path class="st4" d="M169,33.9c0.6,0.4,1.2,0.6,1.9,0.6c1,0,1.6-0.6,1.6-1.5v-0.4l0,0c-0.4,0.3-0.9,0.4-1.5,0.4
		c-1.5,0-2.8-1.1-2.8-2.9c0-1.7,1.2-3.1,3-3.1c0.6,0,1.1,0.1,1.5,0.3l1.2-0.2v5.8c0,1.8-1.2,2.8-3,2.8c-0.7,0-1.4-0.2-1.9-0.4V33.9z
		 M172.5,28.6c-0.3-0.2-0.8-0.3-1.2-0.3c-1,0-1.6,0.8-1.6,1.7c0,1,0.7,1.8,1.6,1.8c0.4,0,0.9-0.1,1.2-0.4V28.6z"/>
	<path class="st4" d="M176.7,30.5c0.2,1,0.9,1.5,1.9,1.5c0.7,0,1.4-0.3,2-0.7v1.3c-0.5,0.3-1.4,0.5-2.1,0.5c-1.9,0-3.2-1.2-3.2-3
		c0-1.8,1.4-3.1,3-3.1c1.4,0,2.7,1,2.7,2.9c0,0.2,0,0.4,0,0.6H176.7z M179.6,29.5c-0.1-0.9-0.7-1.3-1.4-1.3c-0.7,0-1.3,0.4-1.5,1.3
		H179.6z"/>
	<path class="st4" d="M188,27.1c1.8,0,3.2,1.3,3.2,3c0,1.7-1.4,3-3.2,3c-1.8,0-3.2-1.3-3.2-3C184.8,28.4,186.2,27.1,188,27.1z
		 M188,31.9c1,0,1.7-0.8,1.7-1.8s-0.7-1.8-1.7-1.8s-1.7,0.8-1.7,1.8S187,31.9,188,31.9z"/>
	<path class="st4" d="M192.7,28.4h-0.9v-1.2h0.9v-1c0-0.8,0.1-1.4,0.6-1.8c0.4-0.4,1-0.5,1.5-0.5c0.3,0,0.7,0,0.9,0.1v1.2
		c-0.2-0.1-0.6-0.1-0.8-0.1c-0.6,0-0.8,0.4-0.8,1v1.1h1.4v1.2h-1.4V33h-1.4V28.4z"/>
	<path class="st4" d="M201.2,25.8h-2.8v-1.3h7.1v1.3h-2.8V33h-1.5V25.8z"/>
	<path class="st4" d="M206.5,30.5c0.2,1,0.9,1.5,1.9,1.5c0.7,0,1.4-0.3,2-0.7v1.3c-0.5,0.3-1.4,0.5-2.1,0.5c-1.9,0-3.2-1.2-3.2-3
		c0-1.8,1.4-3.1,3-3.1c1.4,0,2.7,1,2.7,2.9c0,0.2,0,0.4,0,0.6H206.5z M209.4,29.5c-0.1-0.9-0.7-1.3-1.4-1.3c-0.7,0-1.3,0.4-1.5,1.3
		H209.4z"/>
	<path class="st4" d="M212.1,24h1.4v9h-1.4V24z"/>
	<path class="st4" d="M218.5,32.6c-0.4,0.3-1,0.6-1.7,0.6c-0.5,0-1-0.1-1.4-0.4c-0.4-0.3-0.7-0.8-0.7-1.3c0-0.6,0.3-1.1,0.7-1.4
		c0.4-0.3,1-0.4,1.6-0.4c0.4,0,0.8,0,1.1,0.1v-0.3c0-0.4-0.1-0.6-0.3-0.8c-0.2-0.2-0.5-0.3-1-0.3c-0.7,0-1.3,0.2-1.8,0.5v-1.3
		c0.5-0.3,1.1-0.5,2-0.5c0.8,0,1.4,0.2,1.9,0.5c0.4,0.3,0.6,0.8,0.6,1.6v2.2c0,0.3,0.1,0.5,0.4,0.5c0.1,0,0.2,0,0.3-0.1V33
		c-0.2,0.1-0.4,0.1-0.7,0.1C219.3,33.1,218.8,33,218.5,32.6L218.5,32.6z M218.3,30.7c-0.3-0.1-0.6-0.1-0.9-0.1
		c-0.6,0-1.2,0.2-1.2,0.8c0,0.5,0.4,0.7,0.9,0.7c0.4,0,0.9-0.2,1.1-0.4V30.7z"/>
	<path class="st4" d="M221.5,27.2h1.4v0.6l0,0c0.5-0.4,1.1-0.8,1.9-0.8c0.6,0,1.2,0.2,1.5,0.6c0.3,0.4,0.5,0.9,0.5,1.7V33h-1.4v-3.4
		c0-0.5-0.1-0.8-0.2-1c-0.2-0.2-0.4-0.3-0.8-0.3c-0.6,0-1.2,0.3-1.5,0.7v4h-1.4V27.2z"/>
	<path class="st4" d="M229,33.9c0.6,0.4,1.2,0.6,1.9,0.6c1,0,1.6-0.6,1.6-1.5v-0.4l0,0c-0.4,0.3-0.9,0.4-1.5,0.4
		c-1.5,0-2.8-1.1-2.8-2.9c0-1.7,1.2-3.1,3-3.1c0.6,0,1.1,0.1,1.5,0.3l1.2-0.2v5.8c0,1.8-1.2,2.8-3,2.8c-0.7,0-1.4-0.2-1.9-0.4V33.9z
		 M232.5,28.6c-0.3-0.2-0.8-0.3-1.2-0.3c-1,0-1.6,0.8-1.6,1.7c0,1,0.7,1.8,1.6,1.8c0.4,0,0.9-0.1,1.2-0.4V28.6z"/>
	<path class="st4" d="M239,32.6c-0.4,0.3-1,0.6-1.7,0.6c-0.5,0-1-0.1-1.4-0.4c-0.4-0.3-0.7-0.8-0.7-1.3c0-0.6,0.3-1.1,0.7-1.4
		c0.4-0.3,1-0.4,1.6-0.4c0.4,0,0.8,0,1.1,0.1v-0.3c0-0.4-0.1-0.6-0.3-0.8c-0.2-0.2-0.5-0.3-1-0.3c-0.7,0-1.3,0.2-1.8,0.5v-1.3
		c0.5-0.3,1.1-0.5,2-0.5c0.8,0,1.4,0.2,1.9,0.5c0.4,0.3,0.6,0.8,0.6,1.6v2.2c0,0.3,0.1,0.5,0.4,0.5c0.1,0,0.2,0,0.3-0.1V33
		c-0.2,0.1-0.4,0.1-0.7,0.1C239.7,33.1,239.3,33,239,32.6L239,32.6z M238.7,30.7c-0.3-0.1-0.6-0.1-0.9-0.1c-0.6,0-1.2,0.2-1.2,0.8
		c0,0.5,0.4,0.7,0.9,0.7c0.4,0,0.9-0.2,1.1-0.4V30.7z"/>
	<path class="st4" d="M241.9,27.2h1.4v0.6l0,0c0.5-0.4,1.1-0.8,1.9-0.8c0.6,0,1.2,0.2,1.5,0.6c0.3,0.4,0.5,0.9,0.5,1.7V33h-1.4v-3.4
		c0-0.5-0.1-0.8-0.2-1c-0.2-0.2-0.4-0.3-0.8-0.3c-0.6,0-1.2,0.3-1.5,0.7v4h-1.4V27.2z"/>
	<path class="st4" d="M252.3,32.6c-0.4,0.3-1,0.6-1.7,0.6c-0.5,0-1-0.1-1.4-0.4c-0.4-0.3-0.7-0.8-0.7-1.3c0-0.6,0.3-1.1,0.7-1.4
		c0.4-0.3,1-0.4,1.6-0.4c0.4,0,0.8,0,1.1,0.1v-0.3c0-0.4-0.1-0.6-0.3-0.8c-0.2-0.2-0.5-0.3-1-0.3c-0.7,0-1.3,0.2-1.8,0.5v-1.3
		c0.5-0.3,1.1-0.5,2-0.5c0.8,0,1.4,0.2,1.9,0.5c0.4,0.3,0.6,0.8,0.6,1.6v2.2c0,0.3,0.1,0.5,0.4,0.5c0.1,0,0.2,0,0.3-0.1V33
		c-0.2,0.1-0.4,0.1-0.7,0.1C253.1,33.1,252.6,33,252.3,32.6L252.3,32.6z M252.1,30.7c-0.3-0.1-0.6-0.1-0.9-0.1
		c-0.6,0-1.2,0.2-1.2,0.8c0,0.5,0.4,0.7,0.9,0.7c0.4,0,0.9-0.2,1.1-0.4V30.7z"/>
</g>
<rect x="120.9" y="10.8" class="st5" width="1" height="24"/>
</svg>
