<?xml version="1.0" encoding="utf-8"?>
<!-- Generator: Adobe Illustrator 23.0.4, SVG Export Plug-In . SVG Version: 6.00 Build 0)  -->
<svg version="1.1" xmlns="http://www.w3.org/2000/svg" xmlns:xlink="http://www.w3.org/1999/xlink" x="0px" y="0px"
	 viewBox="0 0 300 120" style="enable-background:new 0 0 300 120;" xml:space="preserve">
<style type="text/css">
	.st0{fill:#FAFDFE;}
	.st1{fill:#FFFFFF;}
</style>
<g id="Layer_1">
	<g>
		<g>
			<path id="XMLID_459_" class="st0" d="M273.4,61.9h-2.9c-0.6,0-1,0.5-1,1v17.6c0,5.7,4.6,10.3,10.3,10.3h1.9c0.6,0,1-0.5,1-1v-2.9
				c0-0.6-0.5-1-1-1h-1.9c-3,0-5.3-2.4-5.3-5.3V62.9C274.4,62.4,273.9,61.9,273.4,61.9z"/>
			<path id="XMLID_458_" class="st0" d="M279.4,69.3h-7.1v4.9h7.1c0.6,0,1-0.5,1-1v-2.9C280.4,69.8,279.9,69.3,279.4,69.3z"/>
			<path id="XMLID_457_" class="st0" d="M186,90.8h-2.9c-0.6,0-1-0.5-1-1V70.3c0-0.6,0.5-1,1-1h2.9c0.6,0,1,0.5,1,1v19.5
				C187,90.4,186.5,90.8,186,90.8z"/>
			<path id="XMLID_456_" class="st0" d="M203,90.8h-2.9c-0.6,0-1-0.5-1-1V62.9c0-0.6,0.5-1,1-1h2.9c0.6,0,1,0.5,1,1v26.8
				C204.1,90.4,203.6,90.8,203,90.8z"/>
			<path id="XMLID_455_" class="st0" d="M266,90.8h-2.9c-0.6,0-1-0.5-1-1V70.3c0-0.6,0.5-1,1-1h2.9c0.6,0,1,0.5,1,1v19.5
				C267.1,90.4,266.6,90.8,266,90.8z"/>
			<path id="XMLID_454_" class="st0" d="M266,66.8h-2.9c-0.6,0-1-0.5-1-1v-2.9c0-0.6,0.5-1,1-1h2.9c0.6,0,1,0.5,1,1v2.9
				C267.1,66.4,266.6,66.8,266,66.8z"/>
			<path id="XMLID_451_" class="st0" d="M169,90.8c-5.9,0-10.8-4.8-10.8-10.8c0-5.9,4.8-10.8,10.8-10.8s10.8,4.8,10.8,10.8
				C179.8,86,174.9,90.8,169,90.8z M169,74.2c-3.2,0-5.8,2.6-5.8,5.8c0,3.2,2.6,5.8,5.8,5.8c3.2,0,5.8-2.6,5.8-5.8
				C174.8,76.8,172.2,74.2,169,74.2z"/>
			<path id="XMLID_450_" class="st0" d="M240.2,69.3h2.9c0.6,0,1,0.5,1,1v10c0,2.7,1.9,5.1,4.6,5.5c3.3,0.4,6.1-2.1,6.1-5.3V70.3
				c0-0.6,0.5-1,1-1h2.9c0.6,0,1,0.5,1,1v9.9c0,5.5-4.2,10.3-9.8,10.6c-5.9,0.3-10.8-4.4-10.8-10.3V70.3
				C239.2,69.8,239.7,69.3,240.2,69.3z"/>
			<path class="st0" d="M218.8,89.2l-9.9-14c-1.4,0.9-2.8,1.8-4.2,2.5l8.9,12.7c0.2,0.3,0.5,0.4,0.8,0.4h3.5
				C218.8,90.8,219.3,89.9,218.8,89.2z"/>
			<path class="st0" d="M210.9,69.7l-8.6,10.3c0.5,0.8,1,1.6,1.4,2.5c0.3,0.8-0.5,3-0.3,3.8L216.3,71c0.6-0.7,0.1-1.7-0.8-1.7h-3.8
				C211.4,69.3,211.1,69.4,210.9,69.7z"/>
			<g>
				<path class="st0" d="M151,70.3l0,11.5c0,2-1.5,3.9-3.5,4c-2.3,0.2-4.3-1.6-4.3-3.9V70.3c0-0.6-0.5-1-1-1h-2.9c-0.6,0-1,0.5-1,1
					V82c0,4.9,3.9,8.8,8.8,8.8l0,0c4.9,0,8.8-3.9,8.8-8.8V70.3c0-0.6-0.5-1-1-1H152C151.5,69.3,151,69.8,151,70.3z"/>
				<path class="st0" d="M138.3,70.3v11.5c0,2-1.5,3.9-3.5,4c-2.3,0.2-4.3-1.6-4.3-3.9V70.3c0-0.6-0.5-1-1-1h-2.9c-0.6,0-1,0.5-1,1
					V82c0,4.9,3.9,8.8,8.8,8.8l0,0c4.9,0,8.8-3.9,8.8-8.8V70.3c0-0.6-0.5-1-1-1h-2.9C138.8,69.3,138.3,69.8,138.3,70.3z"/>
			</g>
			<path class="st0" d="M194.9,73.9l1.4-2.6c0.3-0.5,0.1-1.2-0.5-1.4c-1.8-0.7-3.8-0.8-5.8-0.3c-4.7,1.1-7.9,5.5-7.9,10.3v10
				c0,0.6,0.5,1,1,1h2.9c0.6,0,1-0.5,1-1v-10c0-2.5,1.7-4.9,4.1-5.4c0.9-0.2,1.8-0.2,2.6,0C194.2,74.5,194.7,74.3,194.9,73.9z"/>
			<path id="XMLID_449_" class="st0" d="M225.9,90.8H223c-0.6,0-1-0.5-1-1V70.3c0-0.6,0.5-1,1-1h2.9c0.6,0,1,0.5,1,1v19.5
				C226.9,90.4,226.5,90.8,225.9,90.8z"/>
			<path class="st0" d="M234.8,73.9l1.4-2.6c0.3-0.5,0.1-1.2-0.5-1.4c-1.8-0.7-3.8-0.8-5.8-0.3c-4.7,1.1-7.9,5.5-7.9,10.3v10
				c0,0.6,0.5,1,1,1h2.9c0.6,0,1-0.5,1-1v-10c0-2.5,1.7-4.9,4.1-5.4c0.9-0.2,1.8-0.2,2.6,0C234.1,74.5,234.6,74.3,234.8,73.9z"/>
		</g>
		<path class="st0" d="M87.5,34.1H43.8c-0.9,0-1.6,0.7-1.6,1.6l0,11.9c0,0.9,0.7,1.6,1.6,1.6h1.6c0.9,0,1.6-0.7,1.6-1.6V39l37.1,0
			v8.6c0,0.9,0.7,1.6,1.6,1.6h1.6c0.9,0,1.6-0.7,1.6-1.6V35.7C89.1,34.8,88.4,34.1,87.5,34.1z"/>
		<path class="st0" d="M108.9,52.9H97.2c-0.7,0-1.4,0.4-1.7,1.1l-18,38L61.3,57.8h8.2l-1.7,3.5c-0.3,0.6-0.3,1.3,0,1.8l1,2.2
			c0.2,0.5,0.7,0.8,1.3,0.8c0.5,0,1-0.3,1.3-0.8l4.8-10.1c0.2-0.5,0.2-1.1-0.1-1.6c-0.3-0.5-0.8-0.8-1.4-0.8H56.1
			c-0.6,0-1.1,0.3-1.4,0.8c-0.3,0.5-0.3,1.1-0.1,1.6l8.1,17L53.3,92l-18-38c-0.3-0.6-1-1.1-1.7-1.1l-11.2,0c-0.9,0-1.6,0.7-1.6,1.6
			l0,51.1c0,0.9,0.7,1.6,1.6,1.6h86.5c0.9,0,1.6-0.7,1.6-1.6V54.5C110.5,53.6,109.8,52.9,108.9,52.9z M53.3,98.7
			c1.4,0,2.6-0.8,3.2-2l8.9-18.8l8.9,18.8c0.6,1.2,1.8,2,3.2,2s2.6-0.8,3.2-2l18.5-38.9h6.4v44.5H25.7V57.8h6l18.5,38.9
			C50.7,97.9,52,98.7,53.3,98.7z"/>
	</g>
</g>
<g id="Layer_2">
	<g>
		<path class="st1" d="M23.5,8.9h1.7l0.2,1.4h0.1c1.1-0.9,2.4-1.7,3.9-1.7c3.1,0,4.8,2.4,4.8,6.2c0,4.1-2.5,6.5-5.2,6.5
			c-1.1,0-2.2-0.5-3.4-1.4l0.1,2.1v4.1h-2V8.9z M32,14.8c0-2.7-0.9-4.5-3.2-4.5c-1,0-2,0.6-3.2,1.6v6.4c1.1,0.9,2.2,1.3,3,1.3
			C30.5,19.6,32,17.8,32,14.8z"/>
		<path class="st1" d="M36.4,15c0-4.1,2.6-6.4,5.6-6.4s5.6,2.3,5.6,6.4c0,4-2.6,6.3-5.6,6.3S36.4,19,36.4,15z M45.6,15
			c0-2.8-1.4-4.7-3.5-4.7c-2.1,0-3.5,1.9-3.5,4.7c0,2.8,1.4,4.6,3.5,4.6C44.2,19.6,45.6,17.8,45.6,15z"/>
		<path class="st1" d="M49.3,8.9h2.1l1.8,7c0.3,1.1,0.5,2.2,0.7,3.4h0.1c0.3-1.1,0.5-2.2,0.8-3.4l1.9-7h2l1.9,7
			c0.3,1.1,0.6,2.2,0.8,3.4h0.1c0.3-1.1,0.5-2.2,0.8-3.4l1.8-7h1.9L62.8,21h-2.5l-1.8-6.5c-0.3-1.1-0.5-2.3-0.8-3.5h-0.1
			c-0.3,1.2-0.5,2.4-0.8,3.5L55.1,21h-2.4L49.3,8.9z"/>
		<path class="st1" d="M67.7,15c0-4,2.7-6.4,5.4-6.4c3.1,0,4.8,2.2,4.8,5.7c0,0.4,0,0.9-0.1,1.2h-8.2c0.2,2.6,1.7,4.2,4,4.2
			c1.1,0,2.1-0.4,3-0.9l0.7,1.3c-1,0.7-2.3,1.2-4,1.2C70.3,21.3,67.7,19,67.7,15z M76.2,14c0-2.4-1.1-3.8-3-3.8
			c-1.7,0-3.2,1.4-3.5,3.8H76.2z"/>
		<path class="st1" d="M81,8.9h1.7l0.2,2.2H83c0.8-1.5,2.1-2.5,3.4-2.5c0.5,0,0.9,0.1,1.3,0.2l-0.4,1.8c-0.4-0.1-0.7-0.2-1.2-0.2
			c-1,0-2.2,0.8-3.1,2.8V21h-2V8.9z"/>
		<path class="st1" d="M88.6,15c0-4,2.7-6.4,5.4-6.4c3.1,0,4.8,2.2,4.8,5.7c0,0.4,0,0.9-0.1,1.2h-8.2c0.2,2.6,1.7,4.2,4,4.2
			c1.1,0,2.1-0.4,3-0.9l0.7,1.3c-1,0.7-2.3,1.2-4,1.2C91.1,21.3,88.6,19,88.6,15z M97.1,14c0-2.4-1.1-3.8-3-3.8
			c-1.7,0-3.2,1.4-3.5,3.8H97.1z"/>
		<path class="st1" d="M101,15c0-3.9,2.5-6.4,5.3-6.4c1.4,0,2.3,0.5,3.4,1.4l-0.1-2.1V3.2h2.1V21h-1.7l-0.2-1.4h-0.1
			c-1,0.9-2.2,1.7-3.7,1.7C103,21.3,101,19,101,15z M109.6,17.9v-6.3c-1-0.9-2-1.3-2.9-1.3c-2,0-3.5,1.9-3.5,4.6
			c0,2.9,1.2,4.6,3.3,4.6C107.6,19.6,108.6,19.1,109.6,17.9z"/>
		<path class="st1" d="M122.6,19.8L122.6,19.8l-0.2,1.2h-1.6V3.2h2v4.8l0,2.2c1.1-1,2.4-1.7,3.8-1.7c3.1,0,4.8,2.4,4.8,6.2
			c0,4.1-2.5,6.6-5.2,6.6C125,21.3,123.7,20.8,122.6,19.8z M129.2,14.8c0-2.7-0.9-4.5-3.2-4.5c-1,0-2.1,0.6-3.2,1.6v6.4
			c1.1,0.9,2.2,1.3,3,1.3C127.8,19.6,129.2,17.8,129.2,14.8z"/>
		<path class="st1" d="M133.2,26l0.4-1.6c0.2,0.1,0.6,0.2,0.9,0.2c1.4,0,2.2-1.1,2.7-2.6l0.3-0.9l-4.9-12.2h2.1l2.5,6.7
			c0.4,1,0.8,2.3,1.2,3.4h0.1c0.3-1.1,0.7-2.3,1-3.4l2.2-6.7h2L139.2,22c-0.9,2.4-2.1,4.2-4.5,4.2C134.1,26.3,133.6,26.2,133.2,26z"
			/>
	</g>
</g>
</svg>
